# xmcd
#
# Track frame offsets:
#	150
#	14625
#	25976
#	38260
#	49242
#	63014
#	78028
#	93178
#	111449
#	124457
#	135785
#	148581
#	166089
#	180878
#	198968
#	212589
#	238487
#
# Disc length: 3307 seconds
#
# Revision: 1
# Processed by: cddbd v1.5.2PL0 Copyright (c) Steve Scherf et al.
# Submitted via: audiograbber 1.83.01
#
DISCID=d80ce911
DTITLE=Maureen Woods - Reach For The Sky
DYEAR=1900
DGENRE=Country
TTITLE0=A Treasure From The Past
TTITLE1=No Spark
TTITLE2=My Last Mile
TTITLE3=Country Music On The Breeze
TTITLE4=The Singer And The Drifter
TTITLE5=Just Like Before
TTITLE6=A Single Yellow Rose
TTITLE7=One Night On The Town
TTITLE8=Wildflowers
TTITLE9=Help Me Find The Way
TTITLE10=One Thousand Feet
TTITLE11=Reach For The Sky
TTITLE12=Mr Jones
TTITLE13=Wild Blue Gums
TTITLE14=Never Was At All
TTITLE15=The Ringer And The Princess
TTITLE16=Festival Time
EXTD=
EXTT0=
EXTT1=
EXTT2=
EXTT3=
EXTT4=
EXTT5=
EXTT6=
EXTT7=
EXTT8=
EXTT9=
EXTT10=
EXTT11=
EXTT12=
EXTT13=
EXTT14=
EXTT15=
EXTT16=
PLAYORDER=
